PathFileType	4	(X/Y/Z)	Trial58_Right_Knee_markers_cropped.trc
DataRate	CameraRate	NumFrames	NumMarkers	Units	OrigDataRate	OrigDataStartFrame	OrigNumFrames																																																																																													
200	200	6	27	m	200	0	101
Frame#	Time	R_ASIS			L_ASIS			Sacral			L_Thigh_Superior			L_Thigh_Inferior			L_Thigh_Lateral			L_Shank_Superior			L_Shank_Inferior			L_Shank_Lateral			L_Heel			L_Midfoot_Superior			L_Midfoot_Lateral			L_Toe			R_Thigh_Superior			R_Thigh_Inferior			R_Thigh_Lateral			R_Shank_Superior			R_Shank_Lateral			R_Shank_Inferior			R_Heel			R_Midfoot_Superior			R_Midfoot_Lateral			R_Toe
		X1	Y1	Z1	X2	Y2	Z2	X3	Y3	Z3	X4	Y4	Z4	X5	Y5	Z5	X6	Y6	Z6	X7	Y7	Z7	X8	Y8	Z8	X9	Y9	Z9	X10	Y10	Z10	X11	Y11	Z11	X12	Y12	Z12	X13	Y13	Z13	X14	Y14	Z14	X15	Y15	Z15	X16	Y16	Z16	X17	Y17	Z17	X18	Y18	Z18	X19	Y19	Z19	X20	Y20	Z20	X21	Y21	Z21	X22	Y22	Z22	X23	Y23	Z23

1	   0.000	   -0.60212273634211	    0.94221088073233	   -0.50431011327789	   -0.59199260970760	    0.94870778558421	   -0.77908993043327	   -0.81635074080671	    1.00762381970315	   -0.65034474022747	   -0.54284884150209	    0.74171119755830	   -0.73046436504342	   -0.54396569443457	    0.54868913559858	   -0.70900213236971	   -0.62100554550261	    0.62708320348885	   -0.78595779988340	   -0.56868393317214	    0.40772883264358	   -0.69495470395044	   -0.60864351404662	    0.18501050520574	   -0.65590393106670	   -0.65333620282892	    0.28834619852483	   -0.74157609965546	   -0.73818306211214	    0.03200861979669	   -0.60968413175289	   -0.57941709807727	    0.08968802256965	   -0.66092471199465	   -0.66090268078589	    0.02895490289990	   -0.68879420274866	   -0.73818306211214	    0.03200861979669	   -0.60968413175289	   -0.51491991229724	    0.76938574331372	   -0.54957732772682	   -0.47953646401367	    0.60803520713447	   -0.57764850673654	   -0.56140638826348	    0.64436212317760	   -0.48901311531103	   -0.51685531097357	    0.42144319171325	   -0.54376490026979	   -0.60457397944563	    0.24208688856677	   -0.52351751337226	   -0.62182683004555	    0.35193801804105	   -0.47525889091714	   -0.78016859044259	    0.11920169033368	   -0.54366923775400	   -0.60087604017514	    0.12577374319198	   -0.50216561420849	   -0.70421606204763	    0.09150824201991	   -0.46633948274041	   -0.50272079169377	    0.04475552420598	   -0.46551200428497
2	   0.005	   -0.60151465530727	    0.94199245318668	   -0.50457852173028	   -0.59223030812999	    0.94878563183310	   -0.77929816607758	   -0.81633224542223	    1.00724891726173	   -0.64981132357172	   -0.54276458850320	    0.74168903895439	   -0.73073988033173	   -0.54380864467730	    0.54869315982276	   -0.70917655612660	   -0.62096987343924	    0.62704534037131	   -0.78609645330902	   -0.56849646577671	    0.40764121904406	   -0.69501059041737	   -0.60842820937734	    0.18499009942875	   -0.65583263485439	   -0.65321114863172	    0.28826338946012	   -0.74157923263624	   -0.73820351740048	    0.03198630413457	   -0.60967349937771	   -0.57943609747690	    0.08970509092886	   -0.66093248638127	   -0.66091067627975	    0.02894981421308	   -0.68879555505879	   -0.73820351740048	    0.03198630413457	   -0.60967349937771	   -0.51430910748990	    0.76926521419492	   -0.55034432673369	   -0.47871540368179	    0.60787589814259	   -0.57843939619150	   -0.56027747334071	    0.64425923574450	   -0.48945692483286	   -0.51684240189386	    0.42130684275958	   -0.54394167077961	   -0.60658216867994	    0.24307951148935	   -0.52302915189454	   -0.62259717079448	    0.35322527615260	   -0.47524711600087	   -0.78347901349328	    0.12210193550802	   -0.54279143800321	   -0.60427896490598	    0.12693034677762	   -0.50117752719944	   -0.70791084197870	    0.09402012583247	   -0.46527097796164	   -0.50699512610855	    0.04509300903821	   -0.46405166707205
3	   0.010	   -0.60091810089338	    0.94177100723845	   -0.50484466354202	   -0.59247692768326	    0.94886083374613	   -0.77950445288677	   -0.81631532854568	    1.00689121920106	   -0.64927484291546	   -0.54269866650116	    0.74166905841462	   -0.73100421290827	   -0.54367308466140	    0.54869900224168	   -0.70934565276736	   -0.62094955150795	    0.62701064308513	   -0.78623368439060	   -0.56832847160203	    0.40755760930889	   -0.69507018295019	   -0.60821827963433	    0.18497387144617	   -0.65576404934960	   -0.65310020545133	    0.28818079815319	   -0.74158312777954	   -0.73822344295396	    0.03196395340435	   -0.60966352430542	   -0.57945670314588	    0.08972288434415	   -0.66094173508011	   -0.66091915280474	    0.02894402016063	   -0.68879725052731	   -0.73822344295396	    0.03196395340435	   -0.60966352430542	   -0.51374382827510	    0.76911664313432	   -0.55110707013518	   -0.47797375756963	    0.60768323928879	   -0.57923451659965	   -0.55921960322265	    0.64413384173683	   -0.48990421959298	   -0.51693967451812	    0.42114130894920	   -0.54412643018023	   -0.60871445115116	    0.24406103319919	   -0.52254821615041	   -0.62347239880249	    0.35449922464337	   -0.47523659805269	   -0.78692725442464	    0.12501527244535	   -0.54190810918039	   -0.60781896731648	    0.12807568617929	   -0.50020069505916	   -0.71173778850129	    0.09653247028328	   -0.46420647737657	   -0.51141109134128	    0.04540862787116	   -0.46261728530017
4	   0.015	   -0.60035220534919	    0.94154359739612	   -0.50510259655572	   -0.59274390671941	    0.94892945969375	   -0.77970461398830	   -0.81630402427125	    1.00657343004231	   -0.64873362160065	   -0.54267587921436	    0.74165338739437	   -0.73124338226151	   -0.54358844825634	    0.54870918728430	   -0.70950120581218	   -0.62096446936628	    0.62698296519805	   -0.78636588187218	   -0.56820522590559	    0.40748368629938	   -0.69513718847123	   -0.60802485793405	    0.18496666045806	   -0.65570234009821	   -0.65302220106375	    0.28809920579703	   -0.74158824415307	   -0.73824057503708	    0.03194127644131	   -0.60965418059182	   -0.57948091300863	    0.08974247938226	   -0.66095417987544	   -0.66092872373848	    0.02893660335876	   -0.68879966687988	   -0.73824057503708	    0.03194127644131	   -0.60965418059182	   -0.51328194385318	    0.76890694311058	   -0.55185370790201	   -0.47741088909134	    0.60741674073227	   -0.58003253962814	   -0.55832651368892	    0.64395899947361	   -0.49035641532460	   -0.51728611745805	    0.42091219889850	   -0.54432531342092	   -0.61112601653269	    0.24501881751046	   -0.52208345832163	   -0.62458713733647	    0.35574422128671	   -0.47522938834478	   -0.79068248817892	    0.12795805657993	   -0.54101951434916	   -0.61166613219123	    0.12919753137070	   -0.49924847574212	   -0.71586328075418	    0.09904697800135	   -0.46315477389185	   -0.51614667372539	    0.04567764484618	   -0.46123615447627
5	   0.020	   -0.59984340458973	    0.94130748113752	   -0.50534281842958	   -0.59304335449082	    0.94898631510466	   -0.77989164220160	   -0.81630561648787	    1.00631974924799	   -0.64818936787857	   -0.54272454001448	    0.74164280676596	   -0.73144295908513	   -0.54358791272034	    0.54872655018735	   -0.70963304536889	   -0.62103599354038	    0.62696600941585	   -0.78648690248709	   -0.56815430435667	    0.40742608795280	   -0.69521400200025	   -0.60786340528873	    0.18497298484893	   -0.65565205803526	   -0.65299789163367	    0.28802004478796	   -0.74159455300442	   -0.73825128012855	    0.03191788412616	   -0.60964465929303	   -0.57951075184948	    0.08976523359131	   -0.66097144907842	   -0.66094000699580	    0.02892661874948	   -0.68880313117520	   -0.73825128012855	    0.03191788412616	   -0.60964465929303	   -0.51298364164491	    0.76860479168311	   -0.55256330323611	   -0.47712780069882	    0.60703703851088	   -0.58082139272443	   -0.55770051181316	    0.64370924216895	   -0.49080960917907	   -0.51802391127379	    0.42058869750964	   -0.54453827942202	   -0.61397602625087	    0.24594288102732	   -0.52164314506820	   -0.62608448905766	    0.35694671436252	   -0.47522838465424	   -0.79491456314302	    0.13094917517663	   -0.54013760572737	   -0.61599357061201	    0.13028752368051	   -0.49833382285938	   -0.72046092053093	    0.10156870280123	   -0.46213103181739	   -0.52138772048965	    0.04587934199689	   -0.45992830965789
6	   0.025	   -0.59942212595185	    0.94105973874575	   -0.50555444017253	   -0.59338611529474	    0.94902556088852	   -0.78005628309182	   -0.81633024336883	    1.00615132798633	   -0.64764787865342	   -0.54287188163864	    0.74163638334455	   -0.73158989235190	   -0.54370239610414	    0.54875375069450	   -0.70973082711206	   -0.62118352839596	    0.62696276540620	   -0.78658926430285	   -0.56820142716453	    0.40739131274821	   -0.69530087628951	   -0.60774919249750	    0.18499620247112	   -0.65561641901929	   -0.65304617261513	    0.28794501747322	   -0.74160172677592	   -0.73825274862390	    0.03189348219812	   -0.60963403166684	   -0.57954786705337	    0.08979260254147	   -0.66099479619612	   -0.66095338438480	    0.02891328917277	   -0.68880781240780	   -0.73825274862390	    0.03189348219812	   -0.60963403166684	   -0.51290124492778	    0.76818599594723	   -0.55320794996741	   -0.47720884793317	    0.60651370098623	   -0.58157651791164	   -0.55743551959945	    0.64336554592157	   -0.49125249962650	   -0.51927232826086	    0.42015106408912	   -0.54475707161337	   -0.61740030512014	    0.24682966628084	   -0.52123384247092	   -0.62809172475475	    0.35809885562575	   -0.47523671524142	   -0.79976544743196	    0.13401029484088	   -0.53928656125289	   -0.62094831293381	    0.13134491232605	   -0.49746795186528	   -0.72568359310887	    0.10410756425794	   -0.46115600021092	   -0.52729911870945	    0.04600195939689	   -0.45870306858199
